<svg preserveAspectRatio="none" overflow="visible" style="display: block;" width="49.5093" height="56.8976" viewBox="0 0 49.5093 56.8976" fill="none" xmlns="http://www.w3.org/2000/svg">
<g id="Frame 2131328726">
<path id="Vector" d="M24.1237 0.0487407C24.613 0.0137642 25.1034 -0.00242473 25.5939 0.000293047C31.865 0.00561043 38.4 2.16695 42.8767 6.68011C45.7354 9.52562 47.7577 13.1017 48.7225 17.0182C49.7851 21.2422 49.4659 29.1971 49.4594 33.8263L49.4356 55.3813C46.76 55.4125 44.0841 55.4052 41.4087 55.3593L41.4091 26.8639C41.4146 21.3403 40.648 15.2803 36.0122 11.5677C30.7853 7.38188 23.3385 7.08506 17.418 9.91438C15.2175 10.966 13.4927 12.1412 12.1842 14.2263C11.3155 15.519 10.6243 17.1154 9.69952 18.2826C9.33759 18.4295 8.94067 18.5673 8.56562 18.682C5.87739 19.5045 3.31488 20.5181 0.69873 21.5375C1.00029 18.9784 2.96335 13.6578 4.32625 11.4399C8.64668 4.40876 16.1871 0.587687 24.1237 0.0487407Z" fill="url(#paint0_linear_0_4)"/>
<path id="Vector_2" d="M2.47021 50.5001L9.17181 46.471C9.94529 47.7123 11.1621 48.6503 12.6996 48.9328C15.2689 49.4048 18.2159 48.2576 20.0587 46.4718C22.705 43.9072 24.9937 40.8265 27.127 37.8552C27.5661 37.2439 31.6872 33.191 32.1303 33.1634C32.0539 33.5452 35.0807 30.7541 34.7866 31.0001L31.2988 34.4787C36.2866 31 36.1498 35.7241 36.7315 35.6069C37.5747 34.296 38.2511 32.6173 38.9303 31.628L39.0706 31.6079C39.0262 32.8516 32.6462 43.6216 31.4142 44.4529C29.1649 47.7076 28.5482 48.7296 25.732 51.6249C25.0425 52.7177 23.7222 53.5192 22.6697 54.2252C15.0106 59.3627 6.55064 56.5301 2.47021 50.5001Z" fill="url(#paint1_linear_0_4)"/>
<g id="Vector_3">
<path d="M39.2868 19.5C38.9303 23 37.5908 25.5 33.7466 27.2065C23.7868 31.6279 26.2868 30.5 19.9487 33.0232C15.2032 34.711 8.93436 36.1594 8.30136 42.2079C8.07101 43.6978 8.40157 45.2347 9.17183 46.4708L2.47023 50.5C0.406098 47.4496 -0.537334 43.581 0.310516 39.512C1.00388 36.1844 4.95122 31.767 9.11504 29.5509C15.7868 26 30.6723 21.384 39.2868 19.5Z" fill="#D9D9D9"/>
<path d="M39.2868 19.5C38.9303 23 37.5908 25.5 33.7466 27.2065C23.7868 31.6279 26.2868 30.5 19.9487 33.0232C15.2032 34.711 8.93436 36.1594 8.30136 42.2079C8.07101 43.6978 8.40157 45.2347 9.17183 46.4708L2.47023 50.5C0.406098 47.4496 -0.537334 43.581 0.310516 39.512C1.00388 36.1844 4.95122 31.767 9.11504 29.5509C15.7868 26 30.6723 21.384 39.2868 19.5Z" fill="white"/>
</g>
</g>
<defs>
<linearGradient id="paint0_linear_0_4" x1="-1.71338" y1="11.5" x2="56.2866" y2="50.5" gradientUnits="userSpaceOnUse">
<stop stop-color="white"/>
<stop offset="0.2" stop-color="white"/>
<stop offset="0.4" stop-color="white"/>
<stop offset="0.6" stop-color="white"/>
<stop offset="1" stop-color="white"/>
</linearGradient>
<linearGradient id="paint1_linear_0_4" x1="-19.1126" y1="53.3281" x2="30.2109" y2="41.5775" gradientUnits="userSpaceOnUse">
<stop stop-color="white"/>
<stop offset="0.2" stop-color="white"/>
<stop offset="0.4" stop-color="white"/>
<stop offset="0.6" stop-color="white"/>
<stop offset="1" stop-color="white" stop-opacity="0"/>
</linearGradient>
</defs>
</svg>
